<?xml version="1.0" standalone="no"?>
<!DOCTYPE svg PUBLIC "-//W3C//DTD SVG 20010904//EN"
 "http://www.w3.org/TR/2001/REC-SVG-20010904/DTD/svg10.dtd">
<svg version="1.0" xmlns="http://www.w3.org/2000/svg"
 width="612.000000pt" height="408.000000pt" viewBox="0 0 612.000000 408.000000"
 preserveAspectRatio="xMidYMid meet">

<g transform="translate(0.000000,408.000000) scale(0.100000,-0.100000)"
fill="#5C6B2E" stroke="none">
<path d="M2610 2886 c-136 -42 -256 -131 -317 -235 -35 -60 -43 -169 -16 -220
25 -49 90 -81 163 -81 115 0 210 80 244 205 23 82 27 105 17 105 -4 0 -11 -15
-14 -32 -9 -58 -46 -142 -78 -181 -57 -69 -155 -102 -221 -74 -116 49 -88 228
58 375 154 154 390 193 605 101 l49 -22 -53 -61 c-86 -99 -172 -237 -272 -436
-51 -101 -142 -245 -174 -274 -19 -17 -22 -17 -83 4 -43 16 -88 23 -143 24
-69 1 -84 -2 -113 -23 -25 -17 -32 -29 -30 -49 10 -80 196 -100 324 -35 l51
26 74 -23 c105 -33 246 -33 349 -1 124 38 235 118 290 209 25 41 60 156 60
198 0 39 17 44 77 19 44 -19 49 -19 34 -1 -7 8 -35 20 -62 27 -40 11 -51 18
-55 38 -15 67 -38 139 -56 176 -25 49 -88 129 -123 157 l-26 20 23 25 c13 14
39 33 58 44 27 14 30 18 14 19 -11 0 -45 -15 -76 -33 l-55 -34 -99 33 c-92 31
-108 34 -224 33 -101 0 -139 -5 -200 -23z m608 -184 c32 -60 58 -150 64 -217
l3 -40 -45 -6 c-140 -21 -288 -147 -240 -204 18 -22 28 -18 28 9 0 76 117 170
222 178 l35 3 -3 -40 c-7 -93 -59 -210 -123 -273 -119 -119 -293 -163 -456
-117 -35 10 -63 19 -63 21 0 1 27 28 59 59 84 80 127 148 256 408 63 125 131
248 151 273 l37 45 23 -22 c12 -11 36 -46 52 -77z m-762 -653 c43 -11 83 -24
88 -29 12 -12 -86 -59 -138 -66 -77 -11 -149 29 -132 72 6 16 60 43 87 44 8 0
51 -9 95 -21z"/>
<path d="M3778 2626 c-95 -34 -189 -112 -231 -191 -19 -34 -22 -56 -22 -145 0
-103 1 -107 44 -200 75 -162 94 -227 87 -290 -13 -126 -56 -197 -146 -242
-176 -89 -364 -30 -418 131 -52 153 87 340 253 341 59 0 99 -29 110 -80 15
-66 -12 -111 -82 -136 -36 -12 -36 -13 -10 -14 42 0 97 29 119 64 39 62 0 151
-77 176 -82 27 -234 -15 -317 -89 -115 -101 -102 -285 27 -383 107 -81 287
-94 428 -30 74 34 120 71 154 125 75 119 74 246 -4 417 -63 137 -76 181 -76
255 -1 161 120 285 279 285 62 0 68 -2 100 -34 29 -29 34 -41 34 -83 0 -65
-37 -123 -101 -157 -61 -34 -171 -36 -238 -6 -52 24 -57 25 -41 5 23 -27 117
-48 199 -43 108 7 172 43 212 120 39 77 11 166 -64 202 -43 20 -165 21 -219 2z"/>
<path d="M3123 1374 c-69 -71 -85 -75 -301 -72 -103 2 -167 0 -142 -4 25 -3
122 -7 216 -7 133 -1 174 -4 190 -16 28 -21 43 -18 17 4 l-23 19 26 6 c19 5
23 10 15 23 -11 20 24 73 47 73 13 0 12 -3 -1 -18 -10 -10 -17 -23 -17 -28 1
-14 40 37 40 52 0 25 -23 15 -67 -32z"/>
<path d="M3233 1366 c-15 -12 -41 -28 -58 -34 -27 -11 -25 -12 26 -9 48 3 61
8 82 33 14 16 23 31 20 34 -2 3 -9 -3 -14 -13 -12 -20 -69 -52 -69 -38 0 5 12
19 28 30 15 11 24 21 20 21 -3 0 -19 -11 -35 -24z"/>
<path d="M2380 1370 c8 -5 20 -10 25 -10 6 0 3 5 -5 10 -8 5 -19 10 -25 10 -5
0 -3 -5 5 -10z"/>
<path d="M3558 1373 c6 -2 18 -2 25 0 6 3 1 5 -13 5 -14 0 -19 -2 -12 -5z"/>
<path d="M3848 1373 c7 -3 16 -2 19 1 4 3 -2 6 -13 5 -11 0 -14 -3 -6 -6z"/>
<path d="M2498 1333 c6 -2 18 -2 25 0 6 3 1 5 -13 5 -14 0 -19 -2 -12 -5z"/>
<path d="M2548 1323 c6 -2 18 -2 25 0 6 3 1 5 -13 5 -14 0 -19 -2 -12 -5z"/>
<path d="M2598 1313 c6 -2 18 -2 25 0 6 3 1 5 -13 5 -14 0 -19 -2 -12 -5z"/>
<path d="M3160 1290 c117 -22 136 -23 122 -9 -8 9 -40 14 -90 16 -67 1 -71 0
-32 -7z"/>
<path d="M3155 1260 c-3 -5 1 -10 10 -10 9 0 13 5 10 10 -3 6 -8 10 -10 10 -2
0 -7 -4 -10 -10z"/>
</g>
</svg>
